<svg width="40" height="40" viewBox="0 0 40 40" fill="none" xmlns="http://www.w3.org/2000/svg">
<path d="M35 10H5V35H35V10Z" fill="#23212E"/>
<path d="M35 36.6667H4.99998C4.55795 36.6667 4.13403 36.4911 3.82147 36.1786C3.50891 35.866 3.33331 35.4421 3.33331 35V10C3.33331 9.55801 3.50891 9.13409 3.82147 8.82153C4.13403 8.50897 4.55795 8.33337 4.99998 8.33337H35C35.442 8.33337 35.8659 8.50897 36.1785 8.82153C36.4911 9.13409 36.6666 9.55801 36.6666 10V35C36.6666 35.4421 36.4911 35.866 36.1785 36.1786C35.8659 36.4911 35.442 36.6667 35 36.6667ZM6.66665 33.3334H33.3333V11.6667H6.66665V33.3334Z" fill="white"/>
<path d="M36.6666 16.6666H3.33331V20H36.6666V16.6666Z" fill="white"/>
<path d="M13.3333 15C12.8913 15 12.4673 14.8244 12.1548 14.5118C11.8422 14.1993 11.6666 13.7754 11.6666 13.3333V6.66667C11.6666 6.22464 11.8422 5.80072 12.1548 5.48816C12.4673 5.17559 12.8913 5 13.3333 5C13.7753 5 14.1992 5.17559 14.5118 5.48816C14.8244 5.80072 15 6.22464 15 6.66667V13.3333C15 13.7754 14.8244 14.1993 14.5118 14.5118C14.1992 14.8244 13.7753 15 13.3333 15ZM26.6666 15C26.2246 15 25.8007 14.8244 25.4881 14.5118C25.1756 14.1993 25 13.7754 25 13.3333V6.66667C25 6.22464 25.1756 5.80072 25.4881 5.48816C25.8007 5.17559 26.2246 5 26.6666 5C27.1087 5 27.5326 5.17559 27.8451 5.48816C28.1577 5.80072 28.3333 6.22464 28.3333 6.66667V13.3333C28.3333 13.7754 28.1577 14.1993 27.8451 14.5118C27.5326 14.8244 27.1087 15 26.6666 15Z" fill="white"/>
</svg>
