<svg width="36" height="31" viewBox="0 0 36 31" fill="none" xmlns="http://www.w3.org/2000/svg">
<path d="M33.3 3.64706H15.813L14.805 1.54088C14.5836 1.07882 14.2383 0.689241 13.8085 0.416735C13.3788 0.144228 12.882 -0.000193228 12.375 1.9403e-07H2.7C1.98392 1.9403e-07 1.29716 0.288182 0.790812 0.801149C0.284464 1.31412 0 2.00985 0 2.73529V28.2647C0 28.9902 0.284464 29.6859 0.790812 30.1988C1.29716 30.7118 1.98392 31 2.7 31H33.3C34.0161 31 34.7028 30.7118 35.2092 30.1988C35.7155 29.6859 36 28.9902 36 28.2647V6.38235C36 5.65691 35.7155 4.96117 35.2092 4.44821C34.7028 3.93524 34.0161 3.64706 33.3 3.64706ZM34.2 28.2647C34.2 28.5065 34.1052 28.7384 33.9364 28.9094C33.7676 29.0804 33.5387 29.1765 33.3 29.1765H2.7C2.46131 29.1765 2.23239 29.0804 2.0636 28.9094C1.89482 28.7384 1.8 28.5065 1.8 28.2647V2.73529C1.8 2.49348 1.89482 2.26157 2.0636 2.09058C2.23239 1.91959 2.46131 1.82353 2.7 1.82353H12.375C12.5437 1.82319 12.7091 1.87088 12.8523 1.96115C12.9955 2.05143 13.1108 2.18067 13.185 2.33412L15.696 7.57677C15.9174 8.03883 16.2627 8.42841 16.6925 8.70091C17.1222 8.97342 17.619 9.11784 18.126 9.11765H31.5C31.7387 9.11765 31.9676 9.02159 32.1364 8.8506C32.3052 8.67961 32.4 8.4477 32.4 8.20588C32.4 7.96407 32.3052 7.73216 32.1364 7.56117C31.9676 7.39018 31.7387 7.29412 31.5 7.29412H18.126C17.9573 7.29446 17.7919 7.24677 17.6487 7.15649C17.5055 7.06622 17.3902 6.93698 17.316 6.78353L16.686 5.47059H33.3C33.5387 5.47059 33.7676 5.56665 33.9364 5.73764C34.1052 5.90863 34.2 6.14054 34.2 6.38235V28.2647Z" fill="white"/>
</svg>
