<svg width="42" height="42" viewBox="0 0 42 42" fill="none" xmlns="http://www.w3.org/2000/svg">
<g clip-path="url(#clip0_5_55)">
<path d="M17 3.5C13.5388 3.5 10.1554 4.52636 7.27753 6.44928C4.39967 8.37221 2.15665 11.1053 0.832116 14.303C-0.492418 17.5007 -0.838976 21.0194 -0.163734 24.4141C0.511507 27.8088 2.17822 30.927 4.62564 33.3744C7.07306 35.8218 10.1913 37.4885 13.5859 38.1637C16.9806 38.839 20.4993 38.4924 23.697 37.1679C26.8947 35.8434 29.6278 33.6003 31.5507 30.7225C33.4736 27.8446 34.5 24.4612 34.5 21C34.4948 16.3603 32.6494 11.9121 29.3687 8.63133C26.0879 5.35056 21.6397 3.50516 17 3.5ZM17 35C14.2311 35 11.5243 34.1789 9.22202 32.6406C6.91974 31.1022 5.12532 28.9157 4.06569 26.3576C3.00607 23.7994 2.72882 20.9845 3.26901 18.2687C3.80921 15.553 5.14258 13.0584 7.10051 11.1005C9.05845 9.14257 11.553 7.8092 14.2687 7.26901C16.9845 6.72881 19.7994 7.00606 22.3576 8.06569C24.9157 9.12531 27.1022 10.9197 28.6406 13.222C30.1789 15.5243 31 18.2311 31 21C30.9958 24.7117 29.5194 28.2702 26.8948 30.8948C24.2702 33.5194 20.7117 34.9958 17 35ZM17 20.125C16.5359 20.125 16.0908 20.3094 15.7626 20.6376C15.4344 20.9658 15.25 21.4109 15.25 21.875V27.125C15.25 27.5891 15.4344 28.0343 15.7626 28.3624C16.0908 28.6906 16.5359 28.875 17 28.875C17.4641 28.875 17.9093 28.6906 18.2374 28.3624C18.5656 28.0343 18.75 27.5891 18.75 27.125V21.875C18.75 21.4109 18.5656 20.9658 18.2374 20.6376C17.9093 20.3094 17.4641 20.125 17 20.125ZM17 13.125C16.5674 13.125 16.1444 13.2533 15.7847 13.4937C15.425 13.734 15.1446 14.0757 14.979 14.4754C14.8135 14.8751 14.7701 15.3149 14.8545 15.7393C14.9389 16.1636 15.1473 16.5534 15.4532 16.8593C15.7591 17.1652 16.1489 17.3736 16.5732 17.458C16.9976 17.5424 17.4374 17.4991 17.8371 17.3335C18.2368 17.1679 18.5785 16.8875 18.8188 16.5278C19.0592 16.1681 19.1875 15.7451 19.1875 15.3125C19.1875 14.7323 18.957 14.1759 18.5468 13.7657C18.1366 13.3555 17.5802 13.125 17 13.125Z" fill="white"/>
</g>
<defs>
<clipPath id="clip0_5_55">
<rect width="42" height="42" fill="white"/>
</clipPath>
</defs>
</svg>