<svg width="53" height="51" viewBox="0 0 53 51" fill="none" xmlns="http://www.w3.org/2000/svg">
<path d="M26.5 43.6588C23.1253 43.6561 19.8286 42.6443 17.0335 40.7534C14.2383 38.8625 12.0726 36.1789 10.8145 33.0475C9.55642 29.9161 9.26354 26.48 9.97349 23.1809C10.6834 19.8818 12.3638 16.8704 14.7986 14.5337C14.8755 14.456 14.9671 14.3944 15.0681 14.3524C15.169 14.3103 15.2772 14.2887 15.3865 14.2887C15.4959 14.2887 15.6041 14.3103 15.705 14.3524C15.8059 14.3944 15.8975 14.456 15.9745 14.5337C16.1287 14.6888 16.2153 14.8987 16.2153 15.1175C16.2153 15.3363 16.1287 15.5462 15.9745 15.7013C13.7752 17.8074 12.2566 20.5236 11.6141 23.5001C10.9717 26.4766 11.2348 29.5774 12.3696 32.4031C13.5044 35.2288 15.4589 37.6503 17.9816 39.3557C20.5043 41.0611 23.4797 41.9725 26.5248 41.9725C29.5699 41.9725 32.5453 41.0611 35.068 39.3557C37.5907 37.6503 39.5453 35.2288 40.6801 32.4031C41.8149 29.5774 42.078 26.4766 41.4355 23.5001C40.793 20.5236 39.2744 17.8074 37.0751 15.7013C36.9209 15.5462 36.8343 15.3363 36.8343 15.1175C36.8343 14.8987 36.9209 14.6888 37.0751 14.5337C37.1521 14.456 37.2437 14.3944 37.3446 14.3524C37.4455 14.3103 37.5538 14.2887 37.6631 14.2887C37.7724 14.2887 37.8807 14.3103 37.9816 14.3524C38.0825 14.3944 38.1741 14.456 38.2511 14.5337C40.6889 16.8733 42.3703 19.8893 43.0788 23.1931C43.7872 26.4969 43.4901 29.9371 42.2259 33.0706C40.9616 36.204 38.7881 38.8871 35.9853 40.7743C33.1825 42.6614 29.8789 43.666 26.5 43.6588Z" fill="white"/>
<path d="M26.5 28.1563C26.2804 28.1563 26.0697 28.0691 25.9144 27.9138C25.7591 27.7585 25.6719 27.5478 25.6719 27.3282V10.1694C25.6719 9.9498 25.7591 9.73916 25.9144 9.58386C26.0697 9.42856 26.2804 9.34131 26.5 9.34131C26.7196 9.34131 26.9303 9.42856 27.0856 9.58386C27.2409 9.73916 27.3281 9.9498 27.3281 10.1694V27.3282C27.3281 27.5478 27.2409 27.7585 27.0856 27.9138C26.9303 28.0691 26.7196 28.1563 26.5 28.1563Z" fill="white"/>
</svg>
