<svg width="47" height="48" viewBox="0 0 47 48" fill="none" xmlns="http://www.w3.org/2000/svg">
<path d="M12.7535 7.77904C11.395 7.77944 10.0923 8.31926 9.13177 9.27983C8.1712 10.2404 7.63138 11.5431 7.63098 12.9015C7.63098 14.7915 8.66748 16.4265 10.193 17.316V34.104C9.4163 34.5502 8.77069 35.1928 8.32098 35.9674C7.87127 36.742 7.63331 37.6213 7.63098 38.517C7.63098 41.343 9.92598 43.6395 12.7535 43.6395C15.581 43.6395 17.876 41.343 17.876 38.517C17.876 36.6255 16.841 34.992 15.314 34.104V17.316C16.0909 16.8698 16.7366 16.2269 17.1864 15.452C17.6361 14.6771 17.8739 13.7975 17.876 12.9015C17.8756 11.5431 17.3358 10.2404 16.3752 9.27983C15.4146 8.31926 14.1119 7.77944 12.7535 7.77904ZM12.7535 41.0775C12.0738 41.0775 11.422 40.8075 10.9413 40.3269C10.4607 39.8463 10.1907 39.1945 10.1907 38.5148C10.1907 37.8351 10.4607 37.1833 10.9413 36.7027C11.422 36.222 12.0738 35.952 12.7535 35.952C13.4332 35.952 14.085 36.222 14.5656 36.7027C15.0462 37.1833 15.3162 37.8351 15.3162 38.5148C15.3162 39.1945 15.0462 39.8463 14.5656 40.3269C14.085 40.8075 13.4332 41.0775 12.7535 41.0775ZM12.7535 15.4635C12.4119 15.4718 12.0722 15.4117 11.7542 15.2867C11.4362 15.1617 11.1464 14.9743 10.9019 14.7357C10.6574 14.497 10.4631 14.2119 10.3305 13.897C10.1978 13.5822 10.1295 13.244 10.1295 12.9023C10.1295 12.5606 10.1978 12.2224 10.3305 11.9076C10.4631 11.5927 10.6574 11.3076 10.9019 11.0689C11.1464 10.8302 11.4362 10.6429 11.7542 10.5179C12.0722 10.3929 12.4119 10.3328 12.7535 10.341C13.422 10.3572 14.0578 10.6342 14.5249 11.1127C14.992 11.5913 15.2535 12.2335 15.2535 12.9023C15.2535 13.571 14.992 14.2133 14.5249 14.6918C14.0578 15.1704 13.422 15.4474 12.7535 15.4635ZM35.807 34.104V18.024C35.807 10.32 28.1225 10.3395 28.1225 10.3395H25.5605V5.21704L17.876 12.9015L25.5605 20.586V15.4635H28.1225C30.3815 15.4635 30.6845 18.0255 30.6845 18.0255V34.104C29.9074 34.5497 29.2614 35.1922 28.8117 35.967C28.3619 36.7417 28.1242 37.6212 28.1225 38.517C28.1225 41.343 30.419 43.6395 33.245 43.6395C36.071 43.6395 38.3675 41.343 38.3675 38.517C38.3675 36.6255 37.331 34.992 35.8055 34.104H35.807ZM33.2465 41.0775C32.5668 41.0775 31.9149 40.8075 31.4343 40.3269C30.9537 39.8463 30.6837 39.1945 30.6837 38.5148C30.6837 37.8351 30.9537 37.1833 31.4343 36.7027C31.9149 36.222 32.5668 35.952 33.2465 35.952C33.9262 35.952 34.578 36.222 35.0586 36.7027C35.5392 37.1833 35.8092 37.8351 35.8092 38.5148C35.8092 39.1945 35.5392 39.8463 35.0586 40.3269C34.578 40.8075 33.9262 41.0775 33.2465 41.0775Z" fill="white"/>
</svg>
