<svg width="43" height="43" viewBox="0 0 43 43" fill="none" xmlns="http://www.w3.org/2000/svg">
<path d="M39.3751 21.0528C39.35 17.4319 38.2518 13.8997 36.2193 10.903C34.1868 7.90627 31.3114 5.57953 27.9565 4.21702C24.6017 2.85451 20.9181 2.51743 17.3717 3.2484C13.8253 3.97937 10.5752 5.74556 8.0326 8.32363C5.48996 10.9017 3.76891 14.1759 3.08708 17.7321C2.40525 21.2883 2.79326 24.9668 4.20206 28.3025C5.61086 31.6381 7.97717 34.4811 11.0017 36.472C14.0263 38.4628 17.5733 39.512 21.1942 39.487C26.0497 39.4534 30.6929 37.4923 34.1025 34.0353C37.5121 30.5782 39.4087 25.9082 39.3751 21.0528ZM5.37538 21.288C5.3539 18.1844 6.25324 15.1441 7.95966 12.5516C9.66609 9.95912 12.103 7.93086 14.9621 6.72332C17.8213 5.51578 20.9743 5.18319 24.0225 5.76761C27.0706 6.35204 29.877 7.82723 32.0868 10.0066C34.2966 12.186 35.8105 14.9718 36.437 18.0116C37.0636 21.0514 36.7746 24.2087 35.6068 27.0843C34.4389 29.9599 32.4446 32.4246 29.8759 34.1667C27.3073 35.9088 24.2797 36.8501 21.1761 36.8716C17.0143 36.9004 13.0115 35.2747 10.0483 32.3523C7.08506 29.4298 5.40417 25.4498 5.37538 21.288Z" fill="#C9C9C9"/>
<path d="M26.1689 23.2365C26.4765 22.9805 26.7235 22.6594 26.8921 22.2964C27.0607 21.9335 27.1467 21.5376 27.1439 21.1374C27.1411 20.7372 27.0497 20.3426 26.8761 19.982C26.7025 19.6214 26.4511 19.3037 26.14 19.052L17.0176 12.3148C16.8795 12.2127 16.7227 12.1388 16.556 12.0974C16.3894 12.0559 16.2162 12.0477 16.0464 12.0731C15.8765 12.0986 15.7134 12.1573 15.5662 12.2458C15.419 12.3343 15.2908 12.4509 15.1887 12.589C15.0866 12.7271 15.0127 12.884 14.9712 13.0506C14.9298 13.2173 14.9215 13.3904 14.947 13.5603C14.9725 13.7301 15.0311 13.8933 15.1196 14.0404C15.2081 14.1876 15.3248 14.3159 15.4629 14.418L24.5852 21.1551L15.557 28.0178C15.3954 28.1408 15.2647 28.2996 15.1751 28.4818C15.0856 28.664 15.0397 28.8646 15.0411 29.0676C15.0431 29.3506 15.1368 29.6252 15.3081 29.8504C15.4121 29.9871 15.542 30.1019 15.6903 30.1884C15.8387 30.2749 16.0027 30.3313 16.1728 30.3544C16.343 30.3775 16.5161 30.3669 16.6821 30.3231C16.8482 30.2793 17.004 30.2033 17.1407 30.0993L26.1689 23.2365Z" fill="#C9C9C9"/>
</svg>
