<svg width="43" height="44" viewBox="0 0 43 44" fill="none" xmlns="http://www.w3.org/2000/svg">
<path d="M36.9683 35.365L30.735 29.15C32.7461 26.5878 33.8374 23.4239 33.8333 20.1667C33.8333 17.2659 32.9732 14.4302 31.3616 12.0183C29.75 9.60639 27.4593 7.72653 24.7794 6.61644C22.0994 5.50635 19.1504 5.21591 16.3054 5.78182C13.4603 6.34774 10.8469 7.7446 8.79577 9.79577C6.7446 11.8469 5.34774 14.4603 4.78182 17.3054C4.21591 20.1504 4.50635 23.0994 5.61644 25.7794C6.72653 28.4593 8.60639 30.75 11.0183 32.3616C13.4302 33.9732 16.2659 34.8333 19.1667 34.8333C22.4239 34.8374 25.5878 33.7461 28.15 31.735L34.365 37.9683C34.5354 38.1402 34.7382 38.2766 34.9616 38.3696C35.185 38.4627 35.4247 38.5106 35.6667 38.5106C35.9087 38.5106 36.1483 38.4627 36.3717 38.3696C36.5951 38.2766 36.7979 38.1402 36.9683 37.9683C37.1402 37.7979 37.2766 37.5951 37.3696 37.3717C37.4627 37.1483 37.5106 36.9087 37.5106 36.6667C37.5106 36.4247 37.4627 36.185 37.3696 35.9616C37.2766 35.7382 37.1402 35.5354 36.9683 35.365ZM8.16667 20.1667C8.16667 17.9911 8.81181 15.8643 10.0205 14.0554C11.2292 12.2465 12.9472 10.8366 14.9572 10.004C16.9671 9.17143 19.1789 8.9536 21.3127 9.37804C23.4465 9.80247 25.4065 10.8501 26.9448 12.3885C28.4832 13.9269 29.5309 15.8869 29.9553 18.0207C30.3798 20.1545 30.1619 22.3662 29.3294 24.3762C28.4968 26.3862 27.0869 28.1041 25.2779 29.3128C23.469 30.5215 21.3423 31.1667 19.1667 31.1667C16.2493 31.1667 13.4514 30.0077 11.3885 27.9448C9.3256 25.882 8.16667 23.0841 8.16667 20.1667Z" fill="white"/>
</svg>
