<svg width="44" height="45" viewBox="0 0 44 45" fill="none" xmlns="http://www.w3.org/2000/svg">
<path d="M22.3877 43.2422C23.873 42.2974 25.3628 41.3569 26.8481 40.4121C27.5205 39.9858 28.2017 39.564 28.8564 39.1069C30.4121 38.0215 31.8711 36.7866 33.1675 35.3979C35.7339 32.6426 37.6851 29.3774 38.9199 25.8223C39.9263 22.9175 40.3569 19.8545 40.3569 16.7871C40.3569 14.8887 40.3569 12.9902 40.3569 11.0918C40.3569 11.0391 40.3569 10.9907 40.3569 10.938C40.3569 10.1514 39.8076 9.46582 39.0649 9.2417C38.5288 9.0791 37.9971 8.91211 37.4829 8.69678C37.6235 8.7539 37.7642 8.81543 37.9048 8.87256C36.9863 8.48144 36.125 7.98047 35.334 7.37402C35.4526 7.46631 35.5713 7.55859 35.6899 7.65088C34.9077 7.04443 34.2046 6.3457 33.5981 5.56348C33.6904 5.68213 33.7827 5.80078 33.875 5.91943C33.2686 5.12842 32.7632 4.26269 32.3721 3.34424C32.4292 3.48486 32.4907 3.62549 32.5479 3.76611C32.416 3.44971 32.293 3.12451 32.1875 2.79932C31.9502 2.05664 31.2866 1.50732 30.4912 1.50732C29.8936 1.50732 29.2959 1.50732 28.6982 1.50732C27.2656 1.50732 25.8286 1.50732 24.396 1.50732C22.6689 1.50732 20.9419 1.50732 19.2148 1.50732C17.7163 1.50732 16.2178 1.50732 14.7192 1.50732C13.9941 1.50732 13.2647 1.48535 12.5396 1.50732C12.5308 1.50732 12.5176 1.50732 12.5088 1.50732C11.709 1.50732 11.0498 2.05664 10.8125 2.79932C10.707 3.12891 10.5884 3.44971 10.4521 3.76611C10.5093 3.62549 10.5708 3.48486 10.6279 3.34424C10.2368 4.26269 9.73145 5.12402 9.125 5.91943C9.21729 5.80078 9.30957 5.68213 9.40186 5.56348C8.79541 6.3457 8.09229 7.04443 7.31006 7.65088C7.42871 7.55859 7.54736 7.46631 7.66602 7.37402C6.875 7.98047 6.00928 8.48144 5.09521 8.87256C5.23584 8.81543 5.37647 8.7539 5.51709 8.69678C4.99854 8.91211 4.47119 9.0791 3.93506 9.2417C3.19238 9.46582 2.64307 10.1514 2.64307 10.938C2.64307 12.7046 2.64307 14.4712 2.64307 16.2378C2.64307 17.1694 2.64307 18.1011 2.70898 19.0327C2.84961 20.9268 3.17041 22.8164 3.70215 24.6401C4.75684 28.2612 6.58496 31.5967 9.01074 34.4751C10.896 36.7119 13.168 38.5225 15.6289 40.0825C17.2505 41.1108 18.8721 42.1392 20.4937 43.1675C20.5332 43.1938 20.5772 43.2202 20.6167 43.2466C21.3945 43.7388 22.5898 43.4355 23.0205 42.6138C23.4775 41.7436 23.2183 40.7373 22.3877 40.21C21.5967 39.709 20.8057 39.208 20.019 38.707C19.0083 38.0654 18.002 37.4282 16.9912 36.7866C16.2837 36.3384 15.5938 35.8594 14.9258 35.3496C15.0444 35.4419 15.1631 35.5342 15.2817 35.6265C13.6206 34.3389 12.1265 32.8447 10.8389 31.1836C10.9312 31.3022 11.0234 31.4209 11.1157 31.5395C9.80615 29.8389 8.71631 27.9756 7.87695 25.998C7.93408 26.1387 7.99561 26.2793 8.05273 26.4199C7.1958 24.3853 6.61133 22.2495 6.31689 20.061C6.33887 20.2148 6.36084 20.373 6.37842 20.5269C6.18945 19.103 6.15869 17.6792 6.15869 16.251C6.15869 14.8623 6.15869 13.4736 6.15869 12.085C6.15869 11.707 6.15869 11.3335 6.15869 10.9556C5.72803 11.5225 5.29736 12.085 4.8667 12.6519C6.38281 12.1948 7.85059 11.5884 9.13818 10.6611C10.6631 9.5625 11.9639 8.20898 12.9307 6.5918C13.4624 5.7041 13.8887 4.7373 14.2051 3.75293C13.6382 4.18359 13.0757 4.61426 12.5088 5.04492C13.1064 5.04492 13.7041 5.04492 14.3018 5.04492C15.7344 5.04492 17.1714 5.04492 18.604 5.04492C20.3311 5.04492 22.0581 5.04492 23.7852 5.04492C25.2837 5.04492 26.7822 5.04492 28.2808 5.04492C29.0059 5.04492 29.7354 5.0625 30.4605 5.04492C30.4692 5.04492 30.4824 5.04492 30.4912 5.04492C29.9243 4.61426 29.3618 4.18359 28.7949 3.75293C29.898 7.19385 32.4028 10.1865 35.6899 11.7334C36.481 12.1069 37.2939 12.397 38.1333 12.6519C37.7026 12.085 37.272 11.5225 36.8413 10.9556C36.8413 11.9399 36.8413 12.9243 36.8413 13.9087C36.8413 15.0029 36.8413 16.0972 36.8413 17.187C36.8413 18.3032 36.7666 19.4194 36.6216 20.5269C36.6436 20.373 36.6655 20.2148 36.6831 20.061C36.3843 22.2451 35.7998 24.3853 34.9473 26.4199C35.0044 26.2793 35.0659 26.1387 35.123 25.998C34.2837 27.9756 33.1938 29.8389 31.8843 31.5395C31.9766 31.4209 32.0688 31.3022 32.1611 31.1836C30.8735 32.8447 29.3794 34.3389 27.7183 35.6265C27.8369 35.5342 27.9556 35.4419 28.0742 35.3496C27.0898 36.1099 26.0439 36.7646 24.998 37.4326C23.8379 38.1709 22.6777 38.9048 21.5176 39.6431C21.2188 39.832 20.9155 40.0254 20.6167 40.2143C20.2344 40.456 19.9312 40.8208 19.8081 41.2646C19.6938 41.6865 19.7466 42.2446 19.9839 42.6182C20.4849 43.3916 21.5571 43.7695 22.3877 43.2422Z" fill="white"/>
<path d="M12.5439 22.4077C14.0469 23.9106 15.5498 25.4136 17.0571 26.9209C17.2724 27.1362 17.4878 27.3515 17.6987 27.5625C18.3711 28.2348 19.5137 28.2348 20.186 27.5625C21.3462 26.4023 22.5107 25.2378 23.6709 24.0776C25.5078 22.2407 27.3491 20.3994 29.186 18.5625C29.6079 18.1406 30.0342 17.7143 30.456 17.2925C31.1064 16.6421 31.1548 15.4468 30.456 14.8052C29.7529 14.1592 28.6631 14.1108 27.9687 14.8052C26.8086 15.9653 25.644 17.1299 24.4839 18.29C22.647 20.1269 20.8056 21.9682 18.9687 23.8052C18.5469 24.227 18.1206 24.6533 17.6987 25.0752C18.5293 25.0752 19.3554 25.0752 20.186 25.0752C18.6831 23.5722 17.1802 22.0693 15.6728 20.562C15.4575 20.3467 15.2422 20.1313 15.0312 19.9204C14.3808 19.27 13.1855 19.2217 12.5439 19.9204C11.8979 20.6235 11.8496 21.709 12.5439 22.4077Z" fill="white"/>
</svg>
