<svg width="44" height="43" viewBox="0 0 44 43" fill="none" xmlns="http://www.w3.org/2000/svg">
<path d="M31.7689 6.38252H12.1138L7.22875 10.6694V36.6154H31.7689V6.38253L31.7689 6.38252ZM11.876 5.37476H32.3431C32.6602 5.37476 32.9173 5.60036 32.9173 5.87864V37.1193C32.9173 37.3976 32.6602 37.6232 32.3431 37.6232H6.65457C6.33747 37.6232 6.08038 37.3976 6.08038 37.1193V10.4608H6.08041C6.08041 10.3319 6.13645 10.2029 6.24857 10.1045L6.2486 10.1045L11.4677 5.52454C11.5718 5.43209 11.7163 5.37478 11.8761 5.37478L11.876 5.37476Z" fill="white"/>
<path d="M8.04063 9.9569H11.3018V7.09504L8.04063 9.9569ZM11.876 10.9647H6.65449V10.9646C6.50755 10.9646 6.36059 10.9154 6.24849 10.8171C6.02427 10.6203 6.02427 10.3013 6.24849 10.1045L6.24852 10.1045L11.4676 5.52451C11.5717 5.43206 11.7162 5.37476 11.876 5.37476C12.1931 5.37476 12.4502 5.60036 12.4502 5.87864V10.4608C12.4502 10.7391 12.1931 10.9647 11.876 10.9647L11.876 10.9647ZM21.6064 24.1315L22.5093 23.3392L22.5094 23.3392C22.7756 23.1056 23.1257 22.9888 23.4754 22.9888C23.825 22.9888 24.1752 23.1056 24.4413 23.3392L24.4414 23.3392L25.0575 23.8799L25.0576 23.88C25.3237 24.1135 25.4568 24.4208 25.4568 24.7276C25.4568 25.0345 25.3237 25.3418 25.0576 25.5753L25.0575 25.5754L24.1546 26.3677C24.1773 26.4117 24.1992 26.4561 24.2204 26.5009C24.2415 26.5455 24.2618 26.5906 24.2813 26.636H25.5582C25.9345 26.636 26.2762 26.7708 26.5235 26.9878C26.7709 27.2049 26.9244 27.5048 26.9244 27.835V28.5996C26.9244 28.9299 26.7709 29.2298 26.5235 29.4468C26.2762 29.6639 25.9345 29.7986 25.5582 29.7986H24.2814C24.2619 29.8439 24.2416 29.8889 24.2206 29.9335C24.1993 29.9784 24.1774 30.0229 24.1546 30.0669L25.0575 30.8592L25.0576 30.8593C25.3237 31.0929 25.4568 31.4001 25.4568 31.707C25.4568 32.0139 25.3237 32.3211 25.0576 32.5547L25.0575 32.5547L24.4414 33.0954L24.4413 33.0955C24.1752 33.329 23.825 33.4458 23.4754 33.4458C23.1257 33.4458 22.7755 33.329 22.5094 33.0955L22.5093 33.0954L21.6064 32.3031C21.5563 32.323 21.5058 32.3422 21.4546 32.3608C21.4038 32.3794 21.3524 32.3972 21.3007 32.4143V33.5348C21.3007 33.865 21.1471 34.1649 20.8998 34.3819C20.6525 34.599 20.3107 34.7337 19.9344 34.7337H19.0631C18.6868 34.7337 18.345 34.599 18.0977 34.3819C17.8503 34.1649 17.6968 33.865 17.6968 33.5348V32.4143C17.6451 32.3972 17.5939 32.3794 17.5431 32.361C17.4919 32.3423 17.4413 32.323 17.3911 32.3031L16.4882 33.0954L16.4881 33.0955C16.2219 33.329 15.8718 33.4458 15.5221 33.4458C15.1724 33.4458 14.8223 33.329 14.5562 33.0955L14.5561 33.0954L13.94 32.5547L13.9399 32.5547C13.6738 32.3211 13.5407 32.0138 13.5407 31.707C13.5407 31.4001 13.6738 31.0928 13.9399 30.8593L13.94 30.8592L14.8428 30.0669C14.8202 30.023 14.7982 29.9786 14.7771 29.9337C14.7559 29.8891 14.7357 29.844 14.7161 29.7986H13.4393C13.063 29.7986 12.7212 29.6639 12.4739 29.4468C12.2266 29.2298 12.073 28.9299 12.073 28.5996V27.835C12.073 27.5048 12.2266 27.2049 12.4739 26.9878C12.7212 26.7708 13.063 26.636 13.4393 26.636H14.7161C14.7356 26.5907 14.7559 26.5457 14.7769 26.5011C14.7982 26.4562 14.8201 26.4118 14.8429 26.3677L13.94 25.5754L13.9399 25.5753C13.6738 25.3417 13.5407 25.0345 13.5407 24.7276C13.5407 24.4208 13.6738 24.1135 13.9399 23.88L13.94 23.8799L14.5561 23.3392L14.5562 23.3392C14.8223 23.1056 15.1725 22.9888 15.5221 22.9888C15.8718 22.9888 16.222 23.1056 16.4881 23.3392L16.4882 23.3392L17.3911 24.1315C17.4411 24.1116 17.4917 24.0924 17.5428 24.0738C17.5937 24.0553 17.645 24.0374 17.6968 24.0203V22.8999C17.6968 22.5696 17.8503 22.2697 18.0977 22.0527C18.345 21.8356 18.6868 21.7009 19.0631 21.7009H19.9344C20.3107 21.7009 20.6525 21.8356 20.8998 22.0527C21.1471 22.2697 21.3007 22.5696 21.3007 22.8999V24.0203C21.3524 24.0374 21.4037 24.0553 21.4546 24.0738C21.5057 24.0924 21.5563 24.1116 21.6064 24.1315ZM23.3212 24.0518L22.1347 25.093C21.9578 25.2559 21.6714 25.2996 21.4376 25.1843L21.438 25.1837C21.3005 25.1158 21.1592 25.0553 21.015 25.0028C20.8814 24.9542 20.7447 24.9119 20.6053 24.8764C20.3464 24.8276 20.1523 24.6256 20.1523 24.3838V22.8999C20.1523 22.8478 20.1276 22.8001 20.0878 22.7652C20.0481 22.7303 19.9937 22.7087 19.9344 22.7087H19.0631C19.0038 22.7087 18.9494 22.7303 18.9097 22.7652C18.8699 22.8001 18.8452 22.8478 18.8452 22.8999V24.3732C18.8508 24.5976 18.6837 24.8055 18.4261 24.8689L18.271 24.3838L18.4258 24.868C18.2748 24.9052 18.1267 24.9503 17.9825 25.0029C17.8473 25.0521 17.7147 25.1083 17.5853 25.171C17.3633 25.2945 17.0659 25.2713 16.8723 25.1014L17.2783 24.7451L16.8723 25.1014L15.6762 24.0518L15.6761 24.0517C15.6343 24.015 15.5784 23.9966 15.5221 23.9966C15.4658 23.9966 15.4099 24.015 15.3681 24.0517L15.368 24.0518L14.7519 24.5924L14.7518 24.5925C14.7101 24.6292 14.6891 24.6782 14.6891 24.7276C14.6891 24.777 14.71 24.8261 14.7518 24.8628L14.7519 24.8629L15.9388 25.9044C16.1241 26.0596 16.1738 26.3108 16.0425 26.5157L16.0418 26.5154C15.9645 26.6362 15.8955 26.7603 15.8356 26.8869C15.7803 27.0041 15.7321 27.124 15.6916 27.2463C15.636 27.4735 15.4058 27.6438 15.1303 27.6438H13.4393C13.38 27.6438 13.3256 27.6655 13.2859 27.7004C13.2461 27.7352 13.2214 27.783 13.2214 27.835V28.5996C13.2214 28.6517 13.2461 28.6994 13.2859 28.7343C13.3256 28.7691 13.38 28.7908 13.4393 28.7908H15.1182C15.3739 28.7859 15.6109 28.9325 15.6832 29.1586L15.1303 29.2947L15.6821 29.1589C15.7244 29.2914 15.7759 29.4213 15.8357 29.5479C15.8918 29.6665 15.9559 29.7829 16.0274 29.8965C16.1681 30.0912 16.1416 30.3523 15.9481 30.5221L15.542 30.1658L15.948 30.5221L14.7519 31.5717L14.7518 31.5718C14.7101 31.6085 14.6891 31.6576 14.6891 31.707C14.6891 31.7564 14.71 31.8054 14.7518 31.8421L14.7519 31.8422L15.368 32.3829L15.3681 32.3829C15.4099 32.4196 15.4658 32.438 15.5221 32.438C15.5784 32.438 15.6343 32.4196 15.6761 32.3829L15.6762 32.3829L16.8631 31.3413C17.04 31.1787 17.3262 31.1351 17.5598 31.2503L17.5594 31.2509C17.6971 31.3188 17.8385 31.3794 17.9827 31.4319C18.1162 31.4804 18.2529 31.5227 18.3922 31.5582C18.6511 31.6071 18.8452 31.809 18.8452 32.0508V33.5347C18.8452 33.5868 18.8699 33.6345 18.9096 33.6694C18.9494 33.7043 19.0038 33.726 19.0631 33.726H19.9344C19.9937 33.726 20.0481 33.7043 20.0878 33.6694C20.1276 33.6345 20.1523 33.5868 20.1523 33.5347V32.0614C20.1467 31.837 20.3137 31.6291 20.5713 31.5657L20.7265 32.0508L20.5717 31.5666C20.7227 31.5294 20.8707 31.4843 21.015 31.4318C21.1502 31.3826 21.2828 31.3263 21.4122 31.2636C21.6341 31.1401 21.9316 31.1633 22.1251 31.3332L21.7191 31.6895L22.1251 31.3332L23.3212 32.3829L23.3213 32.3829C23.3631 32.4196 23.4191 32.438 23.4753 32.438C23.5316 32.438 23.5875 32.4196 23.6293 32.3829L23.6294 32.3829L24.2455 31.8422L24.2456 31.8421C24.2874 31.8055 24.3084 31.7564 24.3084 31.707C24.3084 31.6576 24.2874 31.6085 24.2456 31.5718L24.2455 31.5717L23.0587 30.5302C22.8733 30.375 22.8236 30.1238 22.955 29.9189L22.9556 29.9192C23.033 29.7984 23.102 29.6743 23.1619 29.5477C23.2172 29.4305 23.2654 29.3106 23.3058 29.1883C23.3615 28.9611 23.5916 28.7908 23.8671 28.7908H25.5581C25.6175 28.7908 25.6718 28.7691 25.7116 28.7343C25.7513 28.6994 25.776 28.6517 25.776 28.5996V27.835C25.776 27.783 25.7513 27.7353 25.7116 27.7004C25.6718 27.6655 25.6175 27.6438 25.5581 27.6438H23.8792C23.6236 27.6487 23.3866 27.5021 23.3143 27.2761L23.8671 27.1399L23.3154 27.2757C23.273 27.1432 23.2216 27.0133 23.1617 26.8867C23.1057 26.7681 23.0416 26.6517 22.9701 26.5382C22.8294 26.3434 22.8558 26.0824 23.0494 25.9125L23.4554 26.2688L23.0494 25.9125L24.2455 24.8629L24.2456 24.8628C24.2874 24.8261 24.3084 24.777 24.3084 24.7276C24.3084 24.6782 24.2874 24.6292 24.2456 24.5925L24.2455 24.5924L23.6294 24.0518L23.6294 24.0517C23.5876 24.015 23.5316 23.9966 23.4753 23.9966C23.4191 23.9966 23.3631 24.015 23.3213 24.0517L23.3212 24.0518V24.0518Z" fill="white"/>
<path d="M19.4988 26.3233C20.0947 26.3233 20.6343 26.5353 21.0249 26.8781C21.4155 27.2209 21.6571 27.6944 21.6571 28.2174C21.6571 28.7403 21.4155 29.2139 21.0249 29.5566C20.6343 29.8994 20.0947 30.1114 19.4988 30.1114C18.9028 30.1114 18.3632 29.8994 17.9726 29.5566C17.582 29.2139 17.3404 28.7403 17.3404 28.2174C17.3404 27.6944 17.582 27.2209 17.9726 26.8781C18.3632 26.5353 18.9028 26.3233 19.4988 26.3233ZM20.213 27.5906C20.0303 27.4303 19.7777 27.3311 19.4988 27.3311C19.2198 27.3311 18.9673 27.4303 18.7846 27.5906C18.6018 27.751 18.4888 27.9726 18.4888 28.2174C18.4888 28.4621 18.6018 28.6838 18.7846 28.8441C18.9673 29.0045 19.2198 29.1037 19.4988 29.1037C19.7777 29.1037 20.0303 29.0045 20.213 28.8441C20.3957 28.6838 20.5087 28.4621 20.5087 28.2174C20.5087 27.9726 20.3957 27.751 20.213 27.5906ZM11.0653 13.5786C10.7482 13.5786 10.4911 13.8042 10.4911 14.0825C10.4911 14.3608 10.7482 14.5864 11.0653 14.5864H27.9322C28.2493 14.5864 28.5064 14.3608 28.5064 14.0825C28.5064 13.8042 28.2493 13.5786 27.9322 13.5786H11.0653ZM11.0653 17.1478C10.7482 17.1478 10.4911 17.3734 10.4911 17.6517C10.4911 17.93 10.7482 18.1556 11.0653 18.1556H27.9322C28.2493 18.1556 28.5064 17.93 28.5064 17.6517C28.5064 17.3734 28.2493 17.1478 27.9322 17.1478H11.0653Z" fill="white"/>
<path fill-rule="evenodd" clip-rule="evenodd" d="M11.2999 9.95798V7.09216L8.04132 9.95798H11.2999Z" fill="white"/>
<path fill-rule="evenodd" clip-rule="evenodd" d="M19.9344 22.7087H19.0631C19.0038 22.7087 18.9494 22.7304 18.9097 22.7653C18.8699 22.8002 18.8452 22.8479 18.8452 22.9V24.3733C18.8508 24.5977 18.6837 24.8056 18.4262 24.869L18.4258 24.8681C18.2748 24.9053 18.1268 24.9504 17.9825 25.0029C17.8473 25.0521 17.7147 25.1084 17.5853 25.1711C17.3633 25.2946 17.0659 25.2714 16.8724 25.1015L15.6762 24.0518C15.6343 24.0151 15.5784 23.9967 15.5221 23.9967C15.4658 23.9967 15.4099 24.0151 15.368 24.0518L14.7519 24.5926C14.7101 24.6292 14.6891 24.6783 14.6891 24.7277C14.6891 24.7771 14.71 24.8262 14.7519 24.863L15.9388 25.9045C16.1242 26.0597 16.1739 26.3109 16.0425 26.5158L16.0418 26.5155C15.9645 26.6363 15.8955 26.7604 15.8356 26.887C15.7803 27.0042 15.7321 27.1241 15.6916 27.2464C15.636 27.4736 15.4058 27.6439 15.1303 27.6439H13.4393C13.38 27.6439 13.3256 27.6656 13.2859 27.7004C13.2461 27.7353 13.2214 27.783 13.2214 27.8351V28.5997C13.2214 28.6518 13.2461 28.6995 13.2859 28.7344C13.3256 28.7692 13.38 28.7909 13.4393 28.7909H15.1182C15.3739 28.786 15.6109 28.9326 15.6832 29.1587L15.6821 29.159C15.7245 29.2915 15.7759 29.4214 15.8358 29.548C15.8918 29.6666 15.9559 29.783 16.0274 29.8966C16.1681 30.0913 16.1416 30.3524 15.948 30.5222L14.7519 31.5719C14.7101 31.6086 14.6891 31.6577 14.6891 31.7071C14.6891 31.7565 14.71 31.8055 14.7519 31.8423L15.3681 32.383C15.4099 32.4197 15.4658 32.4381 15.5221 32.4381C15.5784 32.4381 15.6343 32.4197 15.6762 32.383L16.8631 31.3414C17.04 31.1788 17.3262 31.1352 17.5598 31.2504L17.5594 31.251C17.6971 31.3189 17.8385 31.3795 17.9828 31.432C18.1162 31.4805 18.2529 31.5228 18.3923 31.5583C18.6511 31.6072 18.8452 31.8091 18.8452 32.0509V33.5348C18.8452 33.5869 18.8699 33.6346 18.9097 33.6695C18.9494 33.7044 19.0038 33.7261 19.0631 33.7261H19.9344C19.9937 33.7261 20.0481 33.7044 20.0878 33.6695C20.1276 33.6346 20.1523 33.5869 20.1523 33.5348V32.0615C20.1467 31.8371 20.3138 31.6292 20.5714 31.5658L20.5717 31.5667C20.7227 31.5295 20.8707 31.4844 21.015 31.4319C21.1502 31.3827 21.2828 31.3264 21.4122 31.2637C21.6342 31.1402 21.9316 31.1634 22.1251 31.3333L23.3213 32.383C23.3632 32.4197 23.4191 32.4381 23.4754 32.4381C23.5317 32.4381 23.5876 32.4197 23.6295 32.383L24.2456 31.8422C24.2874 31.8056 24.3084 31.7565 24.3084 31.7071C24.3084 31.6577 24.2875 31.6086 24.2456 31.5718L23.0587 30.5303C22.8734 30.3751 22.8236 30.1239 22.955 29.9189L22.9557 29.9193C23.033 29.7985 23.1021 29.6744 23.1619 29.5478C23.2172 29.4306 23.2654 29.3107 23.3059 29.1884C23.3615 28.9612 23.5917 28.7909 23.8672 28.7909H25.5582C25.6175 28.7909 25.6719 28.7692 25.7116 28.7344C25.7514 28.6995 25.7761 28.6518 25.7761 28.5997V27.8351C25.7761 27.783 25.7514 27.7353 25.7116 27.7004C25.6719 27.6656 25.6175 27.6439 25.5582 27.6439H23.8793C23.6236 27.6488 23.3866 27.5022 23.3143 27.2761L23.3154 27.2758C23.2731 27.1433 23.2216 27.0134 23.1617 26.8868C23.1057 26.7682 23.0416 26.6518 22.9701 26.5382C22.8294 26.3435 22.8559 26.0824 23.0495 25.9126L24.2456 24.8629C24.2875 24.8262 24.3084 24.7771 24.3084 24.7277C24.3084 24.6783 24.2875 24.6293 24.2456 24.5925L23.6294 24.0518C23.5876 24.0151 23.5317 23.9967 23.4754 23.9967C23.4191 23.9967 23.3632 24.0151 23.3213 24.0518L22.1347 25.0931C21.9579 25.256 21.6714 25.2997 21.4377 25.1844L21.438 25.1838C21.3005 25.1159 21.1592 25.0554 21.015 25.0029C20.8814 24.9543 20.7447 24.912 20.6053 24.8765C20.3464 24.8277 20.1523 24.6257 20.1523 24.3839V22.9C20.1523 22.8479 20.1276 22.8002 20.0878 22.7653C20.0481 22.7304 19.9937 22.7087 19.9344 22.7087V22.7087ZM19.4988 26.3233C20.0947 26.3233 20.6343 26.5354 21.0249 26.8781C21.4155 27.2209 21.6571 27.6944 21.6571 28.2174C21.6571 28.7404 21.4155 29.2139 21.0249 29.5567C20.6343 29.8994 20.0947 30.1115 19.4988 30.1115C18.9028 30.1115 18.3632 29.8994 17.9726 29.5567C17.582 29.2139 17.3404 28.7404 17.3404 28.2174C17.3404 27.6944 17.582 27.2209 17.9726 26.8781C18.3632 26.5354 18.9028 26.3233 19.4988 26.3233Z" fill="white"/>
</svg>
