<svg width="42" height="42" viewBox="0 0 42 42" fill="none" xmlns="http://www.w3.org/2000/svg">
<path d="M22.2425 18.8825C22.0761 18.7232 21.8798 18.5983 21.665 18.515C21.2389 18.34 20.7611 18.34 20.335 18.515C20.1202 18.5983 19.9239 18.7232 19.7575 18.8825L16.2575 22.3825C15.928 22.7121 15.7428 23.159 15.7428 23.625C15.7428 24.0911 15.928 24.538 16.2575 24.8675C16.587 25.1971 17.034 25.3822 17.5 25.3822C17.966 25.3822 18.413 25.1971 18.7425 24.8675L19.25 24.3425V28.875C19.25 29.3392 19.4344 29.7843 19.7626 30.1125C20.0908 30.4407 20.5359 30.625 21 30.625C21.4641 30.625 21.9092 30.4407 22.2374 30.1125C22.5656 29.7843 22.75 29.3392 22.75 28.875V24.3425L23.2575 24.8675C23.4202 25.0316 23.6137 25.1618 23.827 25.2506C24.0402 25.3394 24.269 25.3852 24.5 25.3852C24.731 25.3852 24.9598 25.3394 25.173 25.2506C25.3863 25.1618 25.5798 25.0316 25.7425 24.8675C25.9065 24.7049 26.0367 24.5113 26.1256 24.298C26.2144 24.0848 26.2601 23.8561 26.2601 23.625C26.2601 23.394 26.2144 23.1653 26.1256 22.952C26.0367 22.7388 25.9065 22.5452 25.7425 22.3825L22.2425 18.8825ZM33.25 9.62504H22.26L21.7 7.87504C21.337 6.84819 20.6636 5.95967 19.7731 5.33257C18.8826 4.70547 17.8191 4.37084 16.73 4.37504H8.75C7.35761 4.37504 6.02226 4.92816 5.03769 5.91273C4.05312 6.89729 3.5 8.23265 3.5 9.62504V32.375C3.5 33.7674 4.05312 35.1028 5.03769 36.0873C6.02226 37.0719 7.35761 37.625 8.75 37.625H33.25C34.6424 37.625 35.9777 37.0719 36.9623 36.0873C37.9469 35.1028 38.5 33.7674 38.5 32.375V14.875C38.5 13.4827 37.9469 12.1473 36.9623 11.1627C35.9777 10.1782 34.6424 9.62504 33.25 9.62504ZM35 32.375C35 32.8392 34.8156 33.2843 34.4874 33.6125C34.1593 33.9407 33.7141 34.125 33.25 34.125H8.75C8.28587 34.125 7.84075 33.9407 7.51256 33.6125C7.18437 33.2843 7 32.8392 7 32.375V9.62504C7 9.16091 7.18437 8.71579 7.51256 8.3876C7.84075 8.05941 8.28587 7.87504 8.75 7.87504H16.73C17.0969 7.87409 17.4548 7.98847 17.7531 8.20201C18.0514 8.41555 18.2751 8.71745 18.3925 9.06504L19.3375 11.935C19.4549 12.2826 19.6786 12.5845 19.9769 12.7981C20.2752 13.0116 20.6331 13.126 21 13.125H33.25C33.7141 13.125 34.1593 13.3094 34.4874 13.6376C34.8156 13.9658 35 14.4109 35 14.875V32.375Z" fill="white"/>
</svg>
